<svg width="90" height="69" viewBox="0 0 90 69" fill="none" xmlns="http://www.w3.org/2000/svg">
<path d="M62.2704 31.496C62.2704 26.4269 66.2304 22.3018 71.0966 22.3018C75.9628 22.3018 79.9228 26.4269 79.9228 31.496C79.9228 36.5651 75.9628 40.6902 71.0966 40.6902C66.2304 40.6902 62.2704 36.5651 62.2704 31.496ZM44.6181 31.496C52.7291 31.496 59.3284 24.6215 59.3284 16.1723C59.3284 7.7231 52.7291 0.848633 44.6181 0.848633C36.5071 0.848633 29.9078 7.7231 29.9078 16.1723C29.9078 24.6215 36.5071 31.496 44.6181 31.496ZM18.728 40.6902C23.5941 40.6902 27.5541 36.5651 27.5541 31.496C27.5541 26.4269 23.5941 22.3018 18.728 22.3018C13.8618 22.3018 9.90178 26.4269 9.90178 31.496C9.90178 36.5651 13.8618 40.6902 18.728 40.6902ZM18.6629 45.1552C8.63371 45.1922 0.484375 54.095 0.484375 65.0393C0.484375 66.731 1.80238 68.104 3.42643 68.104H12.7412C12.447 67.1873 12.2526 66.2282 12.2526 65.2109C12.2526 57.6961 14.6562 50.7697 18.6634 45.1587L18.6629 45.1552ZM71.0938 45.1525C70.923 45.1525 70.7556 45.1771 70.5875 45.1799C74.583 50.788 76.978 57.7022 76.978 65.2075C76.978 66.2247 76.7809 67.1873 76.4894 68.1006H86.3952C88.0193 68.1006 89.3373 66.7276 89.3373 65.0359C89.3373 54.0706 81.1553 45.1484 71.0965 45.1484L71.0938 45.1525ZM44.6153 37.6255C30.0166 37.6255 18.1367 50.0007 18.1367 65.2081C18.1367 66.8999 19.4547 68.2729 21.0788 68.2729H68.1551C69.7791 68.2729 71.0972 66.8999 71.0972 65.2081C71.0972 50.0007 59.2173 37.6255 44.6186 37.6255H44.6153Z" fill="#CFA200"/>
</svg>
