<svg width="21" height="21" viewBox="0 0 21 21" fill="none" xmlns="http://www.w3.org/2000/svg">
<path d="M1.30908 5.8C1.30908 4.11984 1.30908 3.27976 1.63606 2.63803C1.92368 2.07354 2.38262 1.6146 2.94711 1.32698C3.58885 1 4.42892 1 6.10908 1H14.5091C16.1892 1 17.0293 1 17.6711 1.32698C18.2355 1.6146 18.6945 2.07354 18.9821 2.63803C19.3091 3.27976 19.3091 4.11984 19.3091 5.8V11.2C19.3091 12.8802 19.3091 13.7202 18.9821 14.362C18.6945 14.9265 18.2355 15.3854 17.6711 15.673C17.0293 16 16.1892 16 14.5091 16H11.9928C11.3688 16 11.0568 16 10.7583 16.0613C10.4935 16.1156 10.2373 16.2055 9.99657 16.3285C9.72525 16.4671 9.4816 16.662 8.9943 17.0518L6.60884 18.9602C6.19275 19.2931 5.98471 19.4595 5.80962 19.4597C5.65735 19.4599 5.5133 19.3906 5.41831 19.2716C5.30908 19.1348 5.30908 18.8684 5.30908 18.3355V16C4.37911 16 3.91412 16 3.53262 15.8978C2.49735 15.6204 1.68871 14.8117 1.4113 13.7765C1.30908 13.395 1.30908 12.93 1.30908 12V5.8Z" stroke="#CFCFCF" stroke-width="2" stroke-linecap="round" stroke-linejoin="round"/>
</svg>
