<svg width="77" height="68" viewBox="0 0 77 68" fill="none" xmlns="http://www.w3.org/2000/svg">
<path d="M20.1719 30.0221H28.1467C29.1219 30.0221 29.9129 30.8151 29.9129 31.7912V58.8407C29.9129 59.8174 29.1212 60.6098 28.1467 60.6098H20.1719C19.1968 60.6098 18.4058 59.8168 18.4058 58.8407V31.7912C18.4058 30.8145 19.1975 30.0221 20.1719 30.0221ZM0.918098 64.0069H76.2021C76.4944 64.0069 76.7323 64.2446 76.7323 64.5368V67.454C76.7323 67.7468 76.495 67.985 76.2021 67.985H0.918098C0.625799 67.985 0.387939 67.7474 0.387939 67.454V64.5368C0.387939 64.2446 0.625208 64.0069 0.918098 64.0069ZM68.1225 8.0387C67.9361 8.99588 67.0084 9.62119 66.0534 9.43445C65.0978 9.24775 64.4735 8.31844 64.66 7.36189L64.7824 6.7378L39.5802 24.6565C38.995 25.0672 38.1903 25.0992 37.5667 24.6707L24.1594 15.441L10.7505 24.6707C9.95111 25.2195 8.85706 25.0151 8.30918 24.2132C7.76126 23.4125 7.9654 22.3166 8.76478 21.7678L23.1666 11.8535C23.7909 11.425 24.5961 11.457 25.1802 11.8737L38.5383 21.069L62.9908 3.68282L62.0701 3.50146C61.1151 3.31477 60.4902 2.38545 60.6767 1.4283C60.863 0.471718 61.7908 -0.154192 62.7464 0.0331429L67.6978 1.00453C68.6557 1.19004 69.2805 2.13832 69.0912 3.0777L68.1225 8.0387ZM48.9747 30.0206H56.9495C57.9246 30.0206 58.7157 30.8136 58.7157 31.7897V58.8392C58.7157 59.8159 57.924 60.6083 56.9495 60.6083H48.9747C47.9996 60.6083 47.2085 59.8153 47.2085 58.8392V31.7897C47.2085 30.813 48.0002 30.0206 48.9747 30.0206ZM63.3747 19.4533H71.3495C72.3246 19.4533 73.1157 20.2463 73.1157 21.2224V58.8395C73.1157 59.8162 72.324 60.6086 71.3495 60.6086H63.3747C62.3996 60.6086 61.6085 59.8156 61.6085 58.8395V21.2224C61.6085 20.2456 62.4002 19.4533 63.3747 19.4533ZM34.572 39.9331H42.5468C43.5219 39.9331 44.313 40.7261 44.313 41.7022V58.8395C44.313 59.8162 43.5213 60.6086 42.5468 60.6086H34.572C33.5969 60.6086 32.8058 59.8156 32.8058 58.8395V41.7022C32.8058 40.7254 33.5975 39.9331 34.572 39.9331ZM5.77072 39.9331H13.7451C14.7202 39.9331 15.5112 40.7261 15.5112 41.7022V58.8395C15.5112 59.8162 14.7196 60.6086 13.7451 60.6086H5.77072C4.7956 60.6086 4.00453 59.8156 4.00453 58.8395V41.7022C4.00453 40.7254 4.79622 39.9331 5.77072 39.9331Z" fill="#30449D"/>
</svg>
