<svg width="26" height="26" viewBox="0 0 26 26" fill="none" xmlns="http://www.w3.org/2000/svg">
<path d="M6.00004 22.435H9.04538C9.44244 22.435 9.83707 22.4823 10.222 22.5768L13.4398 23.3587C14.1379 23.5288 14.8653 23.5453 15.5708 23.4083L19.1285 22.7161C20.0683 22.5331 20.9329 22.083 21.6104 21.4239L24.1276 18.9753C24.8464 18.2773 24.8464 17.1445 24.1276 16.4452C23.4804 15.8157 22.4556 15.7448 21.7234 16.2787L18.7897 18.419C18.3696 18.7261 17.8584 18.8915 17.3326 18.8915H14.4998L16.303 18.8914C17.3193 18.8914 18.1425 18.0906 18.1425 17.1019V16.744C18.1425 15.9231 17.5682 15.2073 16.7498 15.0089L13.9667 14.332C13.5138 14.2222 13.05 14.1667 12.5837 14.1667C11.4581 14.1667 9.42058 15.0986 9.42058 15.0986L6.00004 16.529M1.33337 16.0333L1.33337 22.8C1.33337 23.4534 1.33337 23.7801 1.46053 24.0297C1.57239 24.2492 1.75086 24.4277 1.97038 24.5395C2.21995 24.6667 2.54665 24.6667 3.20004 24.6667H4.13337C4.78677 24.6667 5.11347 24.6667 5.36303 24.5395C5.58255 24.4277 5.76103 24.2492 5.87288 24.0297C6.00004 23.7801 6.00004 23.4534 6.00004 22.8V16.0333C6.00004 15.3799 6.00004 15.0532 5.87288 14.8037C5.76103 14.5842 5.58255 14.4057 5.36303 14.2938C5.11347 14.1667 4.78677 14.1667 4.13337 14.1667H3.20004C2.54665 14.1667 2.21995 14.1667 1.97039 14.2938C1.75086 14.4057 1.57239 14.5842 1.46053 14.8037C1.33337 15.0532 1.33337 15.3799 1.33337 16.0333ZM19.0566 3.19097C18.3604 1.73397 16.7551 0.962084 15.1939 1.7071C13.6327 2.45212 12.9676 4.21895 13.6212 5.76997C14.0252 6.72854 15.1826 8.59 16.0078 9.87221C16.3127 10.346 16.4652 10.5828 16.6879 10.7214C16.8789 10.8403 17.118 10.9043 17.3428 10.8969C17.605 10.8882 17.8554 10.7593 18.3564 10.5015C19.7122 9.8037 21.6452 8.77031 22.4743 8.14215C23.8159 7.12574 24.1482 5.25751 23.1438 3.83728C22.1394 2.41706 20.3881 2.27731 19.0566 3.19097Z" stroke="#191726" stroke-width="1.75" stroke-linecap="round" stroke-linejoin="round"/>
</svg>
