<svg width="73" height="81" viewBox="0 0 73 81" fill="none" xmlns="http://www.w3.org/2000/svg">
<path d="M57.5311 68.67C57.5281 63.4123 59.551 58.3134 63.308 54.642L63.3088 54.6416C67.6321 50.4169 70.6341 45.022 71.9465 39.1168C75.5398 23.1227 65.9818 6.87702 50.2774 2.2616C44.9447 0.691505 39.2911 0.574396 33.8983 1.92384C28.5063 3.27282 23.5709 6.03847 19.602 9.93591C15.6331 13.8334 12.7741 18.721 11.3206 24.0944L11.318 24.0937L11.2901 24.1984L1.00448 37.1473C0.510167 37.7694 0.268449 38.5552 0.326185 39.3474C0.384376 40.1404 0.738565 40.8824 1.31828 41.4257L5.617 45.4525L2.30403 57.8657C1.84625 59.581 2.08749 61.4081 2.97494 62.9457C3.8619 64.4824 5.32228 65.6036 7.03467 66.0621L18.8509 69.2262L18.8551 76.7908C18.8558 77.7837 19.2504 78.7364 19.9515 79.4376C20.653 80.1396 21.6043 80.5336 22.5955 80.5329L53.7994 80.5149L53.7996 80.5143C54.7913 80.5144 55.7418 80.1189 56.442 79.4161C57.1426 78.7141 57.536 77.7612 57.5353 76.7684L57.5311 68.67ZM55.6379 39.1505L54.2196 39.9718L54.196 39.9849L36.5661 50.1939L25.527 31.0674L25.5263 31.0672C23.7036 27.9081 23.7014 24.0154 25.5208 20.8543C27.3401 17.6938 30.7049 15.7447 34.3477 15.7429C37.9905 15.7409 41.3572 17.6853 43.18 20.8444L44.0137 22.2889L45.4319 21.4676L45.4325 21.4678C48.5859 19.6412 52.4729 19.6392 55.6281 21.4614C58.784 23.2839 60.729 26.6547 60.7311 30.3029C60.733 33.9517 58.7918 37.3241 55.6384 39.1507L55.6379 39.1505Z" fill="#265446"/>
</svg>
