<svg width="175" height="32" viewBox="0 0 175 32" fill="none" xmlns="http://www.w3.org/2000/svg">
<path d="M23.3058 12.1528C23.3058 12.2924 23.3058 12.432 23.3058 12.5715C23.2709 13.4437 23.1663 14.316 22.922 15.1533C22.4685 16.8977 21.5614 18.5375 20.3751 19.8982L19.4331 20.8402C18.0725 22.0264 16.4327 22.9335 14.6882 23.3871C13.8509 23.5964 12.9787 23.736 12.1065 23.7709C11.9669 23.7709 11.8273 23.7709 11.6878 23.7709C11.304 23.7709 10.8853 23.736 10.5016 23.7011L20.2356 13.9671C20.41 13.7926 20.5147 13.5484 20.5496 13.2693C20.5496 12.9902 20.4449 12.7111 20.2705 12.5366C20.0611 12.3273 19.782 12.2226 19.5029 12.2226C19.2238 12.2226 18.9796 12.3273 18.7702 12.5366L0.0348857 31.272V25.2362L18.0376 7.23351C18.2469 7.02417 18.3516 6.77995 18.3516 6.50084C18.3516 6.22173 18.2469 5.97751 18.0376 5.76817C17.8282 5.55884 17.584 5.45417 17.3049 5.45417C17.0258 5.45417 16.7816 5.55884 16.5722 5.76817L0.0348857 22.3055V16.2697L11.2691 5.0355C11.5831 4.7215 11.6529 4.30283 11.4785 3.91906C11.304 3.53528 10.9551 3.29105 10.5365 3.29105H10.5016C10.2573 3.29105 10.0131 3.39572 9.80379 3.60506L0.0697768 13.3391C0.0348879 12.9553 0 12.5715 0 12.1528C0 12.0133 0 11.8737 0 11.6993C0.0348889 10.8271 0.174441 9.95485 0.383775 9.11751C0.87222 7.23351 1.84911 5.52395 3.20978 4.0935L3.59356 3.70973C4.98911 2.38395 6.73356 1.37216 8.61757 0.883719C9.4549 0.674386 10.3271 0.534828 11.1993 0.499939C11.3389 0.499939 11.4785 0.499939 11.6529 0.499939C12.2111 0.499939 12.7693 0.534829 13.2927 0.604607C13.8858 0.674385 14.5138 0.813943 15.072 0.988387C15.6302 1.16283 16.1536 1.37217 16.642 1.61639C17.1305 1.86061 17.584 2.10483 18.0376 2.41883C18.4562 2.69794 18.8749 3.01195 19.2936 3.36084C19.6774 3.70973 20.0611 4.0935 20.3751 4.44239C20.724 4.82617 21.038 5.24484 21.3171 5.69839C21.5962 6.15195 21.8754 6.60551 22.1196 7.09395C22.3638 7.61729 22.5731 8.14062 22.7476 8.66395C22.922 9.25707 23.0616 9.85018 23.1663 10.4433C23.2709 11.0364 23.3058 11.5946 23.3058 12.1528Z" fill="url(#paint0_linear_48_1697)"/>
<path d="M23.3058 12.1528C23.3058 12.2924 23.3058 12.432 23.3058 12.5715C23.2709 13.4437 23.1663 14.316 22.922 15.1533C22.4685 16.8977 21.5614 18.5375 20.3751 19.8982L19.4331 20.8402C18.0725 22.0264 16.4327 22.9335 14.6882 23.3871C13.8509 23.5964 12.9787 23.736 12.1065 23.7709C11.9669 23.7709 11.8273 23.7709 11.6878 23.7709C11.304 23.7709 10.8853 23.736 10.5016 23.7011L20.2356 13.9671C20.41 13.7926 20.5147 13.5484 20.5496 13.2693C20.5496 12.9902 20.4449 12.7111 20.2705 12.5366C20.0611 12.3273 19.782 12.2226 19.5029 12.2226C19.2238 12.2226 18.9796 12.3273 18.7702 12.5366L0.0348857 31.272V25.2362L18.0376 7.23351C18.2469 7.02417 18.3516 6.77995 18.3516 6.50084C18.3516 6.22173 18.2469 5.97751 18.0376 5.76817C17.8282 5.55884 17.584 5.45417 17.3049 5.45417C17.0258 5.45417 16.7816 5.55884 16.5722 5.76817L0.0348857 22.3055V16.2697L11.2691 5.0355C11.5831 4.7215 11.6529 4.30283 11.4785 3.91906C11.304 3.53528 10.9551 3.29105 10.5365 3.29105H10.5016C10.2573 3.29105 10.0131 3.39572 9.80379 3.60506L0.0697768 13.3391C0.0348879 12.9553 0 12.5715 0 12.1528C0 12.0133 0 11.8737 0 11.6993C0.0348889 10.8271 0.174441 9.95485 0.383775 9.11751C0.87222 7.23351 1.84911 5.52395 3.20978 4.0935L3.59356 3.70973C4.98911 2.38395 6.73356 1.37216 8.61757 0.883719C9.4549 0.674386 10.3271 0.534828 11.1993 0.499939C11.3389 0.499939 11.4785 0.499939 11.6529 0.499939C12.2111 0.499939 12.7693 0.534829 13.2927 0.604607C13.8858 0.674385 14.5138 0.813943 15.072 0.988387C15.6302 1.16283 16.1536 1.37217 16.642 1.61639C17.1305 1.86061 17.584 2.10483 18.0376 2.41883C18.4562 2.69794 18.8749 3.01195 19.2936 3.36084C19.6774 3.70973 20.0611 4.0935 20.3751 4.44239C20.724 4.82617 21.038 5.24484 21.3171 5.69839C21.5962 6.15195 21.8754 6.60551 22.1196 7.09395C22.3638 7.61729 22.5731 8.14062 22.7476 8.66395C22.922 9.25707 23.0616 9.85018 23.1663 10.4433C23.2709 11.0364 23.3058 11.5946 23.3058 12.1528Z" fill="url(#paint1_linear_48_1697)"/>
<path d="M45.6826 13.9763C45.6826 16.8184 43.551 18.5948 40.1506 18.5948H37.5622V22.0967H34.6185V9.30707H40.1506C43.551 9.35782 45.6826 11.0834 45.6826 13.9763ZM42.6882 13.9763C42.6882 12.5552 41.7746 11.7432 39.9475 11.7432H37.5114V16.1587H39.9475C41.7746 16.1587 42.6882 15.3466 42.6882 13.9763Z" fill="white"/>
<path d="M48.1187 9.35779H51.0623V22.1474H48.1187V9.35779Z" fill="white"/>
<path d="M53.6508 15.7526C53.6508 11.9462 56.5944 9.15479 60.6546 9.15479C64.6641 9.15479 67.6585 11.9462 67.6585 15.7526C67.6585 19.5591 64.6641 22.3504 60.6546 22.3504C56.5944 22.3504 53.6508 19.5083 53.6508 15.7526ZM64.6133 15.7526C64.6133 13.3165 62.8877 11.6417 60.6039 11.6417C58.32 11.6417 56.5944 13.3165 56.5944 15.7526C56.5944 18.1887 58.32 19.8636 60.6039 19.8636C62.9385 19.8128 64.6133 18.138 64.6133 15.7526Z" fill="white"/>
<path d="M81.9198 9.35779V22.1474H79.4837L73.0889 14.3823V22.1474H70.1453V9.35779H72.5814L78.9254 17.1229V9.35779H81.9198Z" fill="white"/>
<path d="M95.217 19.7621V22.1474H85.3203V9.35779H94.9633V11.7432H88.264V14.5345H94.202V16.8184H88.264V19.7621H95.217Z" fill="white"/>
<path d="M107.905 19.7621V22.1474H98.0084V9.35779H107.651V11.7432H100.952V14.5345H106.89V16.8184H100.952V19.7621H107.905Z" fill="white"/>
<path d="M118.868 22.0967L116.381 18.544H116.229H113.64V22.0967H110.697V9.30707H116.229C119.629 9.30707 121.761 11.0834 121.761 13.9255C121.761 15.8541 120.796 17.2752 119.121 17.9858L122.014 22.0967H118.868ZM116.076 11.7432H113.64V16.2094H116.076C117.903 16.2094 118.817 15.3466 118.817 13.9763C118.817 12.5552 117.903 11.7432 116.076 11.7432Z" fill="white"/>
<path d="M137.9 22.0967V11.1342L132.571 20.3711H132.114L126.785 11.1849V22.0967H125.872V9.30707H126.633L132.368 19.2038L138.103 9.30707H138.864V22.0967H137.9Z" fill="white"/>
<path d="M143.178 9.35779H144.092V22.1474H143.178V9.35779Z" fill="white"/>
<path d="M158.81 9.35779V22.1474H158.049L149.319 11.0326V22.1474H148.406V9.35779H149.167L157.846 20.4726V9.35779H158.81Z" fill="white"/>
<path d="M163.124 9.35779H168.199C172.259 9.35779 175 12.0477 175 15.7526C175 19.4575 172.259 22.1474 168.199 22.1474H163.124V9.35779ZM168.148 21.2846C171.752 21.2846 174.086 19.0008 174.086 15.7526C174.086 12.5044 171.752 10.2206 168.148 10.2206H164.088V21.2846H168.148Z" fill="white"/>
<defs>
<linearGradient id="paint0_linear_48_1697" x1="0" y1="31.272" x2="23.3058" y2="31.272" gradientUnits="userSpaceOnUse">
<stop stop-color="#6FEACC"/>
<stop offset="1" stop-color="#FDFF9B"/>
</linearGradient>
<linearGradient id="paint1_linear_48_1697" x1="0" y1="31.272" x2="23.3058" y2="31.272" gradientUnits="userSpaceOnUse">
<stop stop-color="#6FEACC"/>
<stop offset="1" stop-color="#FDFF9B"/>
</linearGradient>
</defs>
</svg>
